User Type,Username,Date,Text
,tyrabit,2012-08-30T22:26Z,"Can anybody comment on the subtitles, are the subs really HARDCODED? I'm asking because there are .srt subtitles included with this torrent... and I'm just wondering why the extra subs if it already has hardcoded subs... or the uploader just doesn't know the meaning on hardcoded subs :)

But thanks for the upload anyhow!"
,tyrabit,2012-08-31T09:09Z,"Dowloaded it and can confirm it has hardcoded english subtitles. The .srt subtitles have only the additions for the hearing impaired and no dialoque. 
A/V quality is very good. Great upload. 

Specs for the 1-st episode: 

General
Complete name                    : C:moviesThe Bridge (Bron-Broen) - Series 1The Bridge - S01E01 - BBC Subtitles - HDTV - 2011.mp4
Format                           : MPEG-4
Format profile                   : Base Media
Codec ID                         : isom
File size                        : 1.12 GiB
Duration                         : 57mn 35s
Overall bit rate mode            : Variable
Overall bit rate                 : 2 787 Kbps
Writing application              : Lavf52.92.0

Video
ID                               : 1
Format                           : AVC
Format/Info                      : Advanced Video Codec
Format profile                   : High@L4.1
Format settings, CABAC           : Yes
Format settings, ReFrames        : 6 frames
Codec ID                         : avc1
Codec ID/Info                    : Advanced Video Coding
Duration                         : 57mn 35s
Bit rate mode                    : Variable
Bit rate                         : 2 687 Kbps
Maximum bit rate                 : 3 500 Kbps
Width                            : 1 280 pixels
Height                           : 720 pixels
Display aspect ratio             : 16:9
Frame rate mode                  : Constant
Frame rate                       : 25.000 fps
Standard                         : PAL
Color space                      : YUV
Chroma subsampling               : 4:2:0
Bit depth                        : 8 bits
Scan type                        : Progressive
Bits/(Pixel*Frame)               : 0.117
Stream size                      : 1.08 GiB (96%)

Audio
ID                               : 2
Format                           : AAC
Format/Info                      : Advanced Audio Codec
Format profile                   : HE-AAC / LC
Codec ID                         : 40
Duration                         : 57mn 35s
Bit rate mode                    : Variable
Bit rate                         : 96.0 Kbps
Channel(s)                       : 2 channels
Channel positions                : Front: L R
Sampling rate                    : 48.0 KHz / 24.0 KHz
Compression mode                 : Lossy
Stream size                      : 39.0 MiB (3%)"
